<mxfile host="app.diagrams.net" modified="2023-09-19T18:58:25.507Z" agent="Mozilla/5.0 (Windows NT 10.0; Win64; x64) AppleWebKit/537.36 (KHTML, like Gecko) Chrome/116.0.0.0 Safari/537.36" etag="CKy4-LsUBLirtCDqeghr" version="21.7.5" type="device">
  <diagram name="Страница 1" id="ykMWDdC_rx6XrkEppTeH">
    <mxGraphModel dx="1434" dy="750" grid="1" gridSize="10" guides="1" tooltips="1" connect="1" arrows="1" fold="1" page="1" pageScale="1" pageWidth="827" pageHeight="1169" math="0" shadow="0">
      <root>
        <mxCell id="0" />
        <mxCell id="1" parent="0" />
        <mxCell id="GtSsYqe8CseLy04RSJ3Y-30" value="Скульптор-цінитель" style="shape=umlActor;verticalLabelPosition=bottom;verticalAlign=top;html=1;outlineConnect=0;" parent="1" vertex="1">
          <mxGeometry x="110" y="230" width="30" height="60" as="geometry" />
        </mxCell>
        <mxCell id="3diH6NeCaBL6UfCDw8o3-14" style="edgeStyle=orthogonalEdgeStyle;rounded=0;orthogonalLoop=1;jettySize=auto;html=1;exitX=1;exitY=1;exitDx=0;exitDy=0;entryX=0;entryY=1;entryDx=0;entryDy=0;dashed=1;" parent="1" source="GtSsYqe8CseLy04RSJ3Y-33" target="GtSsYqe8CseLy04RSJ3Y-34" edge="1">
          <mxGeometry relative="1" as="geometry" />
        </mxCell>
        <mxCell id="GtSsYqe8CseLy04RSJ3Y-33" value="складає Online-замовлення" style="ellipse;whiteSpace=wrap;html=1;" parent="1" vertex="1">
          <mxGeometry x="230" y="280" width="200" height="80" as="geometry" />
        </mxCell>
        <mxCell id="GtSsYqe8CseLy04RSJ3Y-48" value="" style="swimlane;startSize=0;" parent="1" vertex="1">
          <mxGeometry x="198" y="20" width="524" height="501" as="geometry">
            <mxRectangle x="200" y="125" width="50" height="40" as="alternateBounds" />
          </mxGeometry>
        </mxCell>
        <mxCell id="GtSsYqe8CseLy04RSJ3Y-35" value="готує скульптури до відправки" style="ellipse;whiteSpace=wrap;html=1;" parent="GtSsYqe8CseLy04RSJ3Y-48" vertex="1">
          <mxGeometry x="162" y="380" width="200" height="80" as="geometry" />
        </mxCell>
        <mxCell id="GtSsYqe8CseLy04RSJ3Y-34" value="&amp;nbsp;розпочинає роботу над створенням скульптур" style="ellipse;whiteSpace=wrap;html=1;" parent="GtSsYqe8CseLy04RSJ3Y-48" vertex="1">
          <mxGeometry x="282" y="290" width="200" height="80" as="geometry" />
        </mxCell>
        <mxCell id="GtSsYqe8CseLy04RSJ3Y-31" value="надає технічні запитання чи коментарі до скульптури" style="ellipse;whiteSpace=wrap;html=1;" parent="GtSsYqe8CseLy04RSJ3Y-48" vertex="1">
          <mxGeometry x="282" y="130" width="200" height="80" as="geometry" />
        </mxCell>
        <mxCell id="_MfQHNvoKg8z1ilOdqCw-11" value="надсилає відповідь враховуючи його інтереси" style="ellipse;whiteSpace=wrap;html=1;" parent="GtSsYqe8CseLy04RSJ3Y-48" vertex="1">
          <mxGeometry x="52" y="45" width="200" height="80" as="geometry" />
        </mxCell>
        <mxCell id="3diH6NeCaBL6UfCDw8o3-27" value="include" style="text;html=1;align=center;verticalAlign=middle;resizable=0;points=[];autosize=1;strokeColor=none;fillColor=none;" parent="GtSsYqe8CseLy04RSJ3Y-48" vertex="1">
          <mxGeometry x="232" y="298" width="60" height="30" as="geometry" />
        </mxCell>
        <mxCell id="_MfQHNvoKg8z1ilOdqCw-2" value="Майстер-скульптор" style="shape=umlActor;verticalLabelPosition=bottom;verticalAlign=top;html=1;outlineConnect=0;" parent="1" vertex="1">
          <mxGeometry x="770" y="390" width="30" height="60" as="geometry" />
        </mxCell>
        <mxCell id="3diH6NeCaBL6UfCDw8o3-26" style="edgeStyle=orthogonalEdgeStyle;rounded=0;orthogonalLoop=1;jettySize=auto;html=1;entryX=1;entryY=0.5;entryDx=0;entryDy=0;" parent="1" target="_MfQHNvoKg8z1ilOdqCw-11" edge="1">
          <mxGeometry relative="1" as="geometry">
            <mxPoint x="750" y="100" as="sourcePoint" />
            <Array as="points">
              <mxPoint x="610" y="100" />
              <mxPoint x="610" y="105" />
            </Array>
          </mxGeometry>
        </mxCell>
        <mxCell id="_MfQHNvoKg8z1ilOdqCw-4" value="Офісний &lt;br&gt;співробітник" style="shape=umlActor;verticalLabelPosition=bottom;verticalAlign=top;html=1;outlineConnect=0;" parent="1" vertex="1">
          <mxGeometry x="770" y="80" width="30" height="60" as="geometry" />
        </mxCell>
        <mxCell id="_MfQHNvoKg8z1ilOdqCw-17" value="" style="endArrow=classic;html=1;rounded=0;entryX=1;entryY=0.5;entryDx=0;entryDy=0;" parent="1" target="GtSsYqe8CseLy04RSJ3Y-35" edge="1">
          <mxGeometry width="50" height="50" relative="1" as="geometry">
            <mxPoint x="760" y="420" as="sourcePoint" />
            <mxPoint x="870" y="370" as="targetPoint" />
            <Array as="points">
              <mxPoint x="670" y="430" />
            </Array>
          </mxGeometry>
        </mxCell>
        <mxCell id="3diH6NeCaBL6UfCDw8o3-4" value="" style="endArrow=block;html=1;rounded=0;startArrow=none;startFill=0;endFill=0;" parent="1" edge="1">
          <mxGeometry width="50" height="50" relative="1" as="geometry">
            <mxPoint x="120" y="320" as="sourcePoint" />
            <mxPoint x="780" y="480" as="targetPoint" />
            <Array as="points">
              <mxPoint x="120" y="560" />
              <mxPoint x="780" y="560" />
              <mxPoint x="780" y="520" />
            </Array>
          </mxGeometry>
        </mxCell>
        <mxCell id="3diH6NeCaBL6UfCDw8o3-8" style="edgeStyle=orthogonalEdgeStyle;rounded=0;orthogonalLoop=1;jettySize=auto;html=1;exitX=0;exitY=0.5;exitDx=0;exitDy=0;" parent="1" source="GtSsYqe8CseLy04RSJ3Y-35" edge="1">
          <mxGeometry relative="1" as="geometry">
            <mxPoint x="140" y="320" as="targetPoint" />
          </mxGeometry>
        </mxCell>
        <mxCell id="3diH6NeCaBL6UfCDw8o3-11" value="" style="endArrow=block;html=1;rounded=0;endFill=0;" parent="1" edge="1">
          <mxGeometry width="50" height="50" relative="1" as="geometry">
            <mxPoint x="780" y="70" as="sourcePoint" />
            <mxPoint x="120" y="200" as="targetPoint" />
            <Array as="points">
              <mxPoint x="780" y="10" />
              <mxPoint x="460" y="10" />
              <mxPoint x="120" y="10" />
            </Array>
          </mxGeometry>
        </mxCell>
        <mxCell id="3diH6NeCaBL6UfCDw8o3-13" value="" style="endArrow=classic;html=1;rounded=0;endFill=1;" parent="1" target="GtSsYqe8CseLy04RSJ3Y-33" edge="1">
          <mxGeometry width="50" height="50" relative="1" as="geometry">
            <mxPoint x="160" y="280" as="sourcePoint" />
            <mxPoint x="750" y="260" as="targetPoint" />
            <Array as="points">
              <mxPoint x="240" y="300" />
            </Array>
          </mxGeometry>
        </mxCell>
        <mxCell id="3diH6NeCaBL6UfCDw8o3-20" style="edgeStyle=orthogonalEdgeStyle;rounded=0;orthogonalLoop=1;jettySize=auto;html=1;exitX=1;exitY=1;exitDx=0;exitDy=0;" parent="1" source="GtSsYqe8CseLy04RSJ3Y-34" edge="1">
          <mxGeometry relative="1" as="geometry">
            <mxPoint x="780" y="378" as="targetPoint" />
            <Array as="points">
              <mxPoint x="700" y="378" />
              <mxPoint x="700" y="360" />
              <mxPoint x="780" y="360" />
            </Array>
          </mxGeometry>
        </mxCell>
        <mxCell id="3diH6NeCaBL6UfCDw8o3-21" value="" style="endArrow=classic;html=1;rounded=0;entryX=0;entryY=1;entryDx=0;entryDy=0;" parent="1" target="GtSsYqe8CseLy04RSJ3Y-31" edge="1">
          <mxGeometry width="50" height="50" relative="1" as="geometry">
            <mxPoint x="160" y="240" as="sourcePoint" />
            <mxPoint x="690" y="280" as="targetPoint" />
          </mxGeometry>
        </mxCell>
        <mxCell id="3diH6NeCaBL6UfCDw8o3-23" style="edgeStyle=orthogonalEdgeStyle;rounded=0;orthogonalLoop=1;jettySize=auto;html=1;exitX=1;exitY=0;exitDx=0;exitDy=0;" parent="1" source="GtSsYqe8CseLy04RSJ3Y-31" edge="1">
          <mxGeometry relative="1" as="geometry">
            <mxPoint x="780" y="180" as="targetPoint" />
            <Array as="points">
              <mxPoint x="730" y="162" />
              <mxPoint x="730" y="200" />
              <mxPoint x="780" y="200" />
            </Array>
          </mxGeometry>
        </mxCell>
        <mxCell id="3diH6NeCaBL6UfCDw8o3-25" style="edgeStyle=orthogonalEdgeStyle;rounded=0;orthogonalLoop=1;jettySize=auto;html=1;exitX=0;exitY=1;exitDx=0;exitDy=0;" parent="1" source="_MfQHNvoKg8z1ilOdqCw-11" edge="1">
          <mxGeometry relative="1" as="geometry">
            <mxPoint x="150" y="210" as="targetPoint" />
          </mxGeometry>
        </mxCell>
      </root>
    </mxGraphModel>
  </diagram>
</mxfile>
